<?xml version="1.0" encoding="utf-8"?>
<!-- Generator: Adobe Illustrator 26.0.0, SVG Export Plug-In . SVG Version: 6.00 Build 0)  -->
<svg version="1.1" id="Capa_1" xmlns="http://www.w3.org/2000/svg" xmlns:xlink="http://www.w3.org/1999/xlink" x="0px" y="0px"
	 viewBox="0 0 100 100" style="enable-background:new 0 0 100 100;" xml:space="preserve">
<style type="text/css">
	.st0{fill:#FFFFFF;}
</style>
<path class="st0" d="M73.5,18.8H46.7v7.7h26.8l0,53.7H19.8V26.4h26.8v-7.7H19.8c-4.2,0-7.7,3.4-7.7,7.6c0,0,0,0,0,0v26.9v26.9
	c0,4.2,3.4,7.7,7.7,7.7h0h53.7h0c4.2,0,7.7-3.4,7.7-7.7V53.3V26.4c0,0,0,0,0,0C81.2,22.1,77.8,18.7,73.5,18.8z"/>
<path class="st0" d="M55.8,46.7c-1.9-1.3-4-2.3-6.3-2.9v5.6c7.4,1.7,11.2,4.3,11.2,10.2v0.1c0,5.7-4.4,9.3-11.1,9.9v4.6h-4.9v-4.7
	c-4.6-0.4-9-2.1-12.7-4.7l4.2-6.2c2.6,1.9,5.6,3.2,8.8,3.9v-5.7c-7.5-1.7-11.4-4.3-11.4-10.2v-0.1c0-5.5,4.1-9.3,11.2-9.8v-2.7h4.9
	v2.8c3.5,0.4,6.9,1.6,9.9,3.6L55.8,46.7z M45,48.5v-5.1c-2.3,0.1-3.2,1.1-3.2,2.3v0.1C41.9,47.1,42.5,47.8,45,48.5z M49.4,57.5v5.2
	c2.2-0.2,3.2-1,3.2-2.4v-0.1C52.6,58.9,51.9,58.1,49.4,57.5L49.4,57.5z"/>
</svg>
