<?xml version="1.0" encoding="utf-8"?>
<!-- Generator: Adobe Illustrator 26.0.0, SVG Export Plug-In . SVG Version: 6.00 Build 0)  -->
<svg version="1.1" id="Capa_1" xmlns="http://www.w3.org/2000/svg" xmlns:xlink="http://www.w3.org/1999/xlink" x="0px" y="0px"
	 viewBox="0 0 100 100" style="enable-background:new 0 0 100 100;" xml:space="preserve">
<style type="text/css">
	.st0{fill:#FFFFFF;}
</style>
<g>
	<path class="st0" d="M76.9,15.5H50v7.7h26.8l0,53.7H23.1V23.1H50v-7.7H23.1c-4.2,0-7.7,3.4-7.7,7.6c0,0,0,0,0,0V50v26.9
		c0,4.2,3.4,7.7,7.7,7.7h0h53.7h0c4.2,0,7.7-3.4,7.7-7.7V50V23.1c0,0,0,0,0,0C84.5,18.9,81.1,15.4,76.9,15.5z"/>
	<path class="st0" d="M59.1,43.4c-1.9-1.3-4-2.3-6.3-2.9v5.6C60.2,47.8,64,50.4,64,56.3v0.1c0,5.7-4.4,9.3-11.1,9.9v4.6h-4.9v-4.7
		c-4.6-0.4-9-2.1-12.7-4.7l4.2-6.2c2.6,1.9,5.6,3.2,8.8,3.9v-5.7c-7.5-1.7-11.4-4.3-11.4-10.2v-0.1c0-5.5,4.1-9.3,11.2-9.8v-2.7H53
		v2.8c3.5,0.4,6.9,1.6,9.9,3.6L59.1,43.4z M48.4,45.2v-5.1c-2.3,0.1-3.2,1.1-3.2,2.3v0.1C45.2,43.8,45.8,44.5,48.4,45.2z M52.7,54.2
		v5.2c2.2-0.2,3.2-1,3.2-2.4v-0.1C55.9,55.6,55.2,54.8,52.7,54.2L52.7,54.2z"/>
</g>
</svg>
