<?xml version="1.0" encoding="utf-8"?>
<!-- Generator: Adobe Illustrator 26.0.0, SVG Export Plug-In . SVG Version: 6.00 Build 0)  -->
<svg version="1.1" xmlns="http://www.w3.org/2000/svg" xmlns:xlink="http://www.w3.org/1999/xlink" x="0px" y="0px"
	 viewBox="0 0 640.3 594.4" style="enable-background:new 0 0 640.3 594.4;" xml:space="preserve">
<style type="text/css">
	.st0{fill:#FF008C;}
	.st1{fill:#009AAF;}
</style>
<g id="BG">
</g>
<g id="Object">
	<g>
		<path class="st0" d="M327.4,552c-82.9-4.3-157.5-49.7-199.6-121.5c-2.8-4.8-1.2-10.9,3.6-13.7c4.8-2.8,10.9-1.2,13.7,3.6
			C183.7,486.3,252.3,528,328.5,532c53.7,2.8,106.8-13.7,149.4-46.4c42.1-32.4,71.6-78.7,83-130.3c1.2-5.4,6.5-8.8,11.9-7.6
			c5.4,1.2,8.8,6.5,7.6,11.9c-12.4,56.2-44.5,106.6-90.4,141.8C443.7,537.1,385.9,555,327.4,552z"/>
	</g>
	<g>
		<path class="st0" d="M122.9,214c-1.3-0.1-2.6-0.4-3.8-1.1c-4.9-2.5-6.9-8.5-4.4-13.4c21.7-42.8,55.1-78.1,96.8-102.1
			c42.7-24.6,91.3-35.8,140.7-32.2c60.7,4.4,117.3,31,159.4,74.8c3.8,4,3.7,10.3-0.3,14.1c-4,3.8-10.3,3.7-14.1-0.3
			c-38.7-40.3-90.7-64.7-146.5-68.7c-45.3-3.3-90,6.9-129.2,29.5c-38.3,22.1-69,54.5-88.9,93.8C130.7,212.3,126.8,214.3,122.9,214z"
			/>
	</g>
	<g>
		<path d="M325.9,580.5c-2.8-0.1-4.9-2.5-4.7-5.3c0.1-2.8,2.5-4.9,5.3-4.7c63.9,3.3,126.8-16.6,177-56c49.8-39.1,84-94.6,96.3-156.3
			c0.5-2.7,3.2-4.5,5.9-3.9c2.7,0.5,4.5,3.2,3.9,5.9c-12.7,64.1-48.2,121.7-99.9,162.2C457.5,563.4,392.2,584,325.9,580.5z"/>
	</g>
	<g>
		<path d="M87.3,206.4c-0.6,0-1.1-0.2-1.7-0.4c-2.5-1.1-3.7-4.1-2.5-6.6c22.7-51.2,60.1-93.9,108.1-123.2
			c49.1-30,105.4-43.7,163-39.5c2.8,0.2,4.8,2.6,4.6,5.3c-0.2,2.8-2.6,4.8-5.3,4.6c-55.5-4-109.8,9.1-157.1,38
			c-46.3,28.3-82.3,69.4-104.2,118.7C91.4,205.4,89.3,206.6,87.3,206.4z"/>
	</g>
	<g>
		<g>
			<path d="M173.5,251.3c-1.3,2-1.8,5.8-2.3,8.1c-0.6,2.3-1,4.9-1.3,7.7c-0.3,2.8-0.6,6-0.7,9.6c-0.2,3.6-0.3,8-0.5,13.2
				c-0.3,6.3-0.6,12.7-0.8,18.9c-0.2,6.2-0.7,12.6-1,18.9c-0.4,6.6-0.8,13.1-1.6,19.4c1.3-4.3,2.5-8.6,3.7-12.8
				c1.2-4.2,2.5-8.4,4.1-12.6c0.6-1.8,1.9-5.4,4-10.8c2.1-5.4,4.8-11.5,8.1-18.5c3.3-7,7.2-14.4,11.7-22.1
				c4.5-7.7,9.6-14.8,15.3-21.5c3-3.6,5.5-6.4,7.7-8.5c2.2-2.1,4.1-3.8,5.7-5.1c3.5-2.8,7-5.2,10.5-7.1c3.6-1.9,6.9-3.5,10.1-4.7
				c3.2-1.2,6.1-2.1,8.6-2.7c2.5-0.6,4.5-1,5.8-1.2c4.6-0.7,7.8-0.4,9.6,0.9c1.8,1.3,2.7,3.2,2.7,5.7c0,0.7-0.2,1.8-0.5,3.2
				c-0.4,1.4-1.2,3-2.4,4.8c-0.9,1.2-1.9,2.2-2.9,3c-1.1,0.8-2.3,1.3-3.7,1.6c-0.8,0.1-1.6,0.1-2.5,0.1c-0.9-0.1-1.8-0.1-2.5,0.1
				c-2.4,0.4-4.4,1.1-5.8,2.3c-1.4,1.2-2.4,2-2.8,2.5c-1.8,2-3.4,4.8-4.8,8.3c-1.4,3.5-2.6,7.3-3.8,11.2c-1.1,3.9-2.1,7.7-2.9,11.4
				c-0.8,3.7-1.5,6.7-2.1,8.9c-2.6,12.4-5,24.8-7,37.3c-2,12.5-3.9,25.2-5.8,37.8c0.6-0.1,2-0.3,4.1-0.7c2.1-0.4,4.3-1,6.4-1.7
				c2.1-0.6,3.7-1.2,4.6-1.7c0.9-0.5,2-0.8,3.2-1c1.7-0.3,3.3,0.1,4.8,1.1c1.5,1,2.2,3.2,2.3,6.6c0,0.7-0.1,1.7-0.2,2.9
				c-0.1,1.2-0.6,2.5-1.2,3.7c-0.7,1.3-1.7,2.5-3,3.7c-1.3,1.2-3.1,2.1-5.4,2.7c-3.4,0.9-6.7,1.3-9.9,1.2c-3.2-0.1-6.7-0.1-9.9,0.4
				c-2.1,0.3-4.4,0.9-6.6,1.5c-2.2,0.6-4.5,1-6.6,1.2c-4.2,0.5-7-0.1-8.5-1.8c-1.5-1.7-2.3-3.5-2.3-5.6c0-1.3,0.2-2.5,0.6-3.4
				c0.4-0.9,1-1.8,1.5-2.5c0.6-0.7,1.2-1.5,1.9-2.2c0.7-0.7,1.3-1.7,1.9-2.8c0.8-1.5,1.3-3,1.6-4.5c0.4-1.4,0.8-3.6,1.4-6.6
				c0.3-1.2,0.5-2.4,0.6-3.6c0.1-1.2,0.3-2.4,0.6-3.5c0.5-3.2,1-6.4,1.4-9.5c0.4-3.1,0.9-6.1,1.4-9.2c0.8-4.9,1.7-9.9,2.8-14.8
				c1-4.9,2.1-9.9,3.2-14.8c0.8-3.8,1.7-7.6,2.6-11.3c0.9-3.7,1.9-7.4,3.1-11.1c0.7-2.1,1.5-4.2,2.3-6.2c0.8-2,1.5-4.1,2.3-6
				c-2.1,2.6-4,5.1-5.8,7.7c-1.2,1.7-2.4,3.5-3.5,5.4c-1.2,1.9-2.4,3.7-3.5,5.6c-1.6,2.6-3,5-4.3,7.2c-1.2,2.1-2.5,4.5-3.7,7
				c-1.2,2.5-2.6,5.4-4.2,8.6c-1.6,3.3-3.4,7.4-5.6,12.2c-2,4.4-4,8.9-5.9,13.5c-1.9,4.6-3.7,9.2-5.4,13.8c-1.1,3.1-2.3,6.2-3.4,9.5
				c-1.1,3.2-2.2,6.5-3.2,9.5c-1.5,4.3-2.8,7.7-3.8,10c-0.9,2.3-2.3,4.3-3.8,6.1c-1.3,1.5-3.1,3-5.3,4.3c-2.2,1.3-5.3,2.3-9.1,3.1
				c-3.7,0.7-6.2,0.6-7.5-0.6c-1.3-1.1-1.9-2.7-1.9-4.8c0-1.5,0.2-2.9,0.6-4.3c0.4-1.4,0.8-2.9,1.1-4.4c0.2-1.2,0.5-2.4,0.6-3.5
				c0.1-1.1,0.3-2.3,0.6-3.5c0.7-5.8,1.2-11.7,1.7-17.5c0.5-5.8,0.7-11.6,1-17.2c0.2-3.6,0.3-7.3,0.2-10.9c-0.1-3.6-0.1-7.2,0-10.8
				c0.1-2.4,0.2-4.9,0.2-7.4c0-2.5,0.1-4.9,0.2-7.4c0.2-4.7,0.6-9.2,1.1-13.8c0.5-4.5,1.1-9.1,1.8-13.7c-2,6.8-3.8,13.5-5.6,20.1
				c-1.8,6.6-3.7,13.4-5.6,20.3c-0.7,2.3-1.6,5.4-2.8,9.2c-1.2,3.8-2.7,8.3-4.6,13.3c-1.9,5-4.2,10.5-6.8,16.4
				c-2.7,5.9-5.8,12-9.4,18.2c-5.2,9.1-10.2,16.3-15,21.5c-4.7,5.3-8.8,9.5-12.3,12.4c-3.5,2.9-7,5.3-10.3,7.2
				c-3.3,1.9-6.4,3.5-9.2,4.6c-2.9,1.2-5.5,2.1-7.8,2.6c-2.3,0.5-4.3,1-5.8,1.3c-0.5,0.1-1.7,0.3-3.9,0.6c-2.1,0.3-4.6,0.6-7.5,0.8
				c-2.9,0.2-5.9,0.2-9.1-0.1c-3.2-0.3-6.2-0.9-8.9-1.8c-0.8-0.2-1.7-0.6-2.9-1.3c-1.1-0.7-2.4-1.6-3.8-2.7
				c-0.8-0.6-1.9-1.8-3.3-3.4c-1.5-1.6-2.2-3.9-2.2-6.9c0-1.2,0.1-2.2,0.3-3c0.2-0.8,0.5-1.3,0.8-1.7c1.5-2.9,3.5-4.9,5.8-6.1
				c2.4-1.2,4.1-1.8,5.1-2c0.3,0,0.7-0.1,1.1-0.2c0.5-0.1,1.1,0,1.8,0.2c1.4,0.4,2.4,0.9,3.2,1.6s1.6,1.5,2.5,2.4
				c0.3,0.3,0.8,0.8,1.6,1.8c0.8,0.9,1.7,1.7,3,2.2c1.5,0.9,3.6,1.7,6.1,2.3c2.6,0.6,6.1,0.5,10.4-0.4c1.5-0.3,3.4-0.8,5.7-1.4
				c2.3-0.7,5-2,8.1-3.8c3.7-2.1,7.2-4.7,10.4-7.6c3.2-3,6-6,8.5-8.9c2.4-3,4.4-5.6,6-7.9c1.5-2.3,2.5-3.9,3-4.7
				c5.1-8.3,9.5-17.3,13.4-26.2c5.7-13.2,10.3-26.9,14.7-40.6c1.5-4.5,3-9.1,4.4-13.7c1.4-4.6,2.9-9.2,4.4-13.8
				c-6.5,1.4-12.4,2.7-17.9,4.1c-5.4,1.3-11.4,3.2-17.8,5.4c-0.9,0.3-2.4,0.8-4.5,1.5c-2.1,0.7-4.5,1.7-7.1,3.1
				c-2.6,1.4-5.4,3.2-8.1,5.3c-2.8,2.1-5.2,4.8-7.2,8c-2.2,3.4-3.6,6.5-4.1,9.3c-0.6,2.8-0.8,4.9-0.8,6.2c0,2.4,0.4,4.4,1.3,6.1
				c0.8,1.7,1.8,3.1,2.9,4.2c1.1,1.1,2.3,2,3.4,2.6c1.1,0.6,2.1,1,2.8,1.1c1.8,0.4,3.5,0.6,5.2,0.7c1.7,0.1,3.1,1.1,4.2,2.9
				c0.5,0.8,0.7,1.6,0.8,2.5c0.1,0.9,0.1,1.4,0.1,1.7c0,0.7-0.1,1.7-0.3,2.9c-0.2,1.2-0.7,2.5-1.4,3.8c-0.7,1.3-1.8,2.6-3.2,3.7
				c-1.4,1.2-3.3,2-5.7,2.5c-1.5,0.3-3.4,0.3-5.6,0.1c-2.2-0.2-4.9-1-7.9-2.4c-5.6-2.4-9.8-6.2-12.7-11.5
				c-2.9-5.3-4.3-11.2-4.4-17.5c0-1.3,0.1-3.4,0.4-6.2c0.3-2.8,1.1-6,2.2-9.6c0.9-2.9,2.2-6,4-9.1c1.8-3.1,4.1-6.2,7.1-9.3
				c2.9-3.1,6.6-6.1,11-9c4.4-2.9,9.7-5.7,15.8-8.3c3.2-1.3,6.3-2.5,9.3-3.5c3-1,6.3-2,9.9-3c3.6-1,7.6-2,12.1-3.1
				c4.5-1.1,9.9-2.4,16.2-4.1c5.6-1.5,10.4-2.8,14.4-4c4-1.2,7-2.5,9.1-3.8c2.3-1.5,4.4-3,6.2-4.8c1.8-1.8,4.1-2.9,7.1-3.4
				c1.9-0.3,3.6-0.1,4.8,0.7c1.3,0.8,2.2,1.8,2.8,2.9c0.6,1.2,1,2.3,1.3,3.5c0.2,1.2,0.4,1.9,0.4,2.4c0,1.9-0.3,3.4-1.1,4.6
				c-0.7,1.1-1.3,2-1.8,2.7c-1.2,1.5-2.1,2.4-2.7,2.7C176.7,248.5,174.6,249.7,173.5,251.3z"/>
			<path d="M331.7,338.9c2.3-2.2,4.2-3.6,5.8-4.4c1.6-0.8,3.1-1.3,4.4-1.6c2.6-0.5,4.7-0.1,6.4,1.2c1.7,1.3,2.5,3.2,2.6,5.6
				c0,0.7-0.2,1.9-0.6,3.5c-0.4,1.6-1.3,3.3-2.5,5.2c-1.2,1.8-3,3.9-5.5,6.1c-2.5,2.2-6.2,3.8-11,4.7c-0.6,0.1-1.5,0.2-2.7,0.4
				c-1.2,0.2-2.6,0-4.1-0.5c-2.6-0.6-4.8-1.8-6.5-3.7c-1.8-1.9-3-4-3.8-6.3c-0.3-0.7-0.6-1.5-0.7-2.4c-0.2-0.9-0.3-2.2-0.5-3.7
				c-1.5,2.9-3.2,5.8-5.1,8.6c-1.9,2.8-4,5.5-6.5,7.8c-2.4,2.4-5.1,4.4-8.1,6.2c-3,1.7-6.2,2.9-9.5,3.5c-1.5,0.3-3.7,0.4-6.4,0.4
				c-2.8,0-5.6-1-8.5-2.9c-2.8-1.8-5-3.9-6.5-6.6c-1.6-2.6-2.7-5.2-3.5-7.9c-0.7-2.7-1.2-5-1.3-7.1c-0.1-2.1-0.2-3.6-0.2-4.4
				c0-1.2,0-2.9,0.1-5.2c0.1-2.3,0.3-5.1,0.7-8.1c0.2-1.7,0.7-4.3,1.4-7.5c0.7-3.3,1.7-7,3-11.3c1.3-4.3,3.1-8.8,5.3-13.6
				c2.2-4.8,4.9-9.5,8.1-14.4c0.6-1,1.7-2.5,3.3-4.6c1.6-2.1,3.7-4.3,6.2-6.6c2.5-2.3,5.4-4.4,8.8-6.4c3.4-2,7.2-3.4,11.3-4.1
				c0.6-0.1,1.5-0.2,2.8-0.4c1.2-0.1,2.6-0.2,4-0.1c1.5,0.1,3,0.4,4.6,0.9c1.6,0.5,3.1,1.3,4.6,2.5c1.7,1.4,3.1,3.2,4.1,5.4
				c0.3-1,0.6-2,1-2.9c0.4-0.9,0.7-1.8,1-2.7c0.3-0.9,0.6-1.9,1-2.9c0.4-1.1,1-2.1,1.9-3.2c0.9-1.1,2.1-2,3.5-2.9
				c1.4-0.8,3.3-1.5,5.6-1.9c2.6-0.5,5-0.4,7.1,0.2c2.1,0.6,3.3,2.3,3.3,5.1c0,1.7-0.4,4.1-1.4,7.1c-1,3-1.8,5.4-2.3,7
				c-0.6,1.7-1.1,3.3-1.6,5c-0.5,1.6-0.9,3.3-1.3,4.9c-2.8,9.7-5.7,19.3-8,29.1c-1.9,7.9-2.6,14.8-3.3,19.5
				c-0.2,1.1-0.4,2.6-0.4,4.2C331.4,334.3,331.5,336.4,331.7,338.9z M283.5,310.9c-1.9,6-3.2,10.9-3.7,14.6
				c-0.4,3.7-0.6,6.9-0.6,9.8c0,2.3,0.3,4.6,0.8,7c0.5,2.4,1.8,4.2,4,5.4c1.1,0.5,2.1,0.8,2.9,0.9c0.8,0.1,1.6,0.1,2.2-0.1
				c1.9-0.4,4.2-1.7,6.5-3.6c2.3-1.9,4.7-4.7,7.1-8.5c0.9-1.3,2.3-3.8,4.1-7.3c1.8-3.6,3.5-7.6,4.9-12c0.1-0.2,0.6-1.4,1.3-3.8
				c0.7-2.3,1.5-5.1,2.3-8.4c0.8-3.3,1.6-6.7,2.2-10.4c0.7-3.7,0.9-7,0.9-9.9c0-0.3,0-1-0.1-2.2c0-1.2-0.3-2.3-0.8-3.4
				c-0.5-1-1.4-2-2.8-2.9c-1.4-0.9-3.6-1.2-6.5-0.8c-1.1,0.2-2.3,0.6-3.7,1.2c-1.4,0.6-3,1.8-4.7,3.5c-2.5,2.4-4.6,4.9-6,7.3
				c-1.5,2.5-2.4,4.1-2.9,4.9c-1.2,2.3-2.3,4.8-3.5,7.3C286.4,302.2,285,306,283.5,310.9z"/>
			<path d="M433.2,322c1.2-1.1,2.3-2,3.5-2.8c1.2-0.8,2.6-1.3,4.4-1.6c2.5-0.4,4.4,0.1,5.8,1.5c1.3,1.4,2,3.3,2.1,5.7
				c0,0.4,0,1-0.1,1.6c-0.1,0.6-0.3,1.4-0.7,2.4c-0.4,1.1-1.1,2.4-1.9,3.9c-0.9,1.5-2.1,3-3.6,4.5c-1.5,1.5-3.4,2.9-5.5,4
				c-2.1,1.2-4.7,2-7.6,2.4c-1.3,0.2-3,0.3-5,0.2c-2-0.1-3.9-0.6-5.8-1.6c-1.9-1-3.4-2.6-4.7-4.8c-1.3-2.2-1.9-5.2-2-9
				c-0.1-4.3,0.7-10.4,2.3-18.4c1.9-9.3,4-18.7,6.3-27.9c1.2-4.8,2.2-9,3.2-12.5c0.9-3.5,1.4-6.2,1.3-8.1c0-1.4-0.5-2.5-1.3-3.3
				c-0.8-0.8-2.1-1.1-3.7-0.8c-2.8,0.5-6.1,3.1-9.9,7.7c-2.1,2.7-4,5.3-5.7,7.9c-1.7,2.6-3.3,5.5-4.8,8.6c-2.9,5.5-5.5,11.1-7.5,17
				c-2,5.8-3.7,11.3-5.1,16.5c-1.4,5.1-2.5,9.7-3.3,13.6c-0.8,3.9-1.4,6.7-1.8,8.4c-1.3,5.6-2.8,9.6-4.4,11.8
				c-1.3,1.4-2.9,2.4-4.6,2.9c-1.7,0.5-2.9,0.8-3.5,0.9c-3.9,0.7-6.6,0.3-8-1.1c-1.4-1.4-2.2-3-2.2-4.9c0-1.6,0.3-3.5,1-5.6
				c0.7-2.1,1.3-5,2.3-8.4c0.5-1.8,1.1-3.7,1.5-5.5c0.4-1.8,0.8-3.5,1.3-5.2c1.7-6.8,3.1-12.7,4.2-17.7c1.1-5,2-9.6,2.7-13.7
				c0.7-4.1,1.3-7.8,1.6-11.1c0.4-3.3,0.6-6.6,0.6-9.7c-1.6,1.3-3.1,2.3-4.6,3c-1.4,0.8-3.2,1.3-5.3,1.7c-2.6,0.5-4.6,0.2-6-0.9
				c-1.5-1.1-2.2-2.8-2.3-5.2c-0.1-2.7,0.7-5.2,2.2-7.6c1.5-2.4,3.4-4.5,5.7-6.4c2.3-1.8,4.8-3.4,7.6-4.7c2.8-1.3,5.3-2.2,7.7-2.6
				c0.6-0.1,1.5-0.2,2.8-0.3c1.3-0.1,2.6,0,4,0.2c1.4,0.2,2.8,0.8,4.2,1.7c1.4,0.9,2.5,2.3,3.2,4.1c0.7,1.7,1,3.8,1.1,6
				c0,1.1,0,2.2,0,3.2c0,1-0.1,2-0.2,3c1.1-1.8,2.2-3.5,3.3-5.3c1.1-1.8,2.1-3.4,3.3-5.1c4.2-5.9,8.4-10.1,12.6-12.5
				c4.2-2.4,7.8-3.9,10.7-4.4c2.7-0.5,5.3-0.5,7.9-0.1c2.6,0.4,4.9,1.3,6.9,2.6s3.6,3,4.8,5.1c1.3,2.1,1.9,4.5,2,7.3
				c0.1,2.6-0.2,5.7-0.8,9.2c-0.6,3.6-1.5,8.2-2.9,13.9c-1.4,6-2.7,11.2-3.8,15.5c-1.1,4.3-2,8.2-2.8,11.6c-0.8,3.4-1.4,6.6-1.9,9.5
				C433.6,315.7,433.3,318.8,433.2,322z"/>
			<path d="M482.7,289.4c-0.3,1.2-0.7,2.9-1.2,4.9c-0.5,2.1-0.7,4.6-0.7,7.5c0,0.7,0,1.1,0,1.8c0,0.9,0.2,1.9,0.5,3
				c0.2,0.7,0.4,1.7,0.8,3c0.4,1.3,1,2.5,1.9,3.6c0.9,1.1,2.1,2,3.7,2.6c1.5,0.6,3.6,0.7,6.1,0.3c1.6-0.3,3.4-0.9,5.4-1.8
				c2-0.9,4.2-2.8,6.7-5.7c1-1.1,1.9-2.2,2.8-3.3c0.8-1.1,1.6-2.2,2.3-3.4c0.3-0.6,0.6-1.2,0.9-1.8c0.3-0.6,0.6-1.1,0.9-1.6
				c0.6-0.8,1.5-2.1,2.9-3.7c1.3-1.6,3.3-2.7,6-3.2c2.7-0.5,4.7,0,6.1,1.5c1.4,1.5,2.1,3.5,2.1,6c0,1.3-0.2,2.7-0.6,4
				c-0.4,1.3-0.8,2.6-1.2,3.8c-0.4,1.2-0.9,2.2-1.3,3.1c-0.4,0.9-0.7,1.4-0.9,1.6c-0.9,1.5-2.3,3.4-4.1,5.7
				c-1.9,2.3-4.1,4.5-6.9,6.8c-2.7,2.2-5.9,4.3-9.6,6.2c-3.7,1.9-7.8,3.2-12.5,4c-10.5,1.9-18.5-0.1-23.9-5.6
				c-5.5-5.6-8.3-13.5-8.5-23.8c0-2.5,0-5.6,0.3-9.2c0.2-3.6,0.9-8.3,1.9-14c0.9-5.1,2.2-10.4,3.8-15.9c1.6-5.5,3.8-10.7,6.5-15.8
				c2.8-5,6.1-9.6,10-13.8c3.9-4.2,8.8-7.6,14.5-10.3c0.9-0.4,2.6-1.1,5-1.9c2.4-0.8,5.1-1.5,8.2-2c0.5-0.1,1.7-0.2,3.6-0.4
				c2-0.2,4.2-0.2,6.6,0.1c2.4,0.2,4.8,0.9,7.2,2c2.4,1.1,4.3,2.8,5.6,5.2c0.5,0.8,0.9,1.9,1.4,3.3c0.5,1.4,0.7,3.4,0.7,5.8
				c0,0.9-0.1,2-0.2,3.5c-0.1,1.5-0.5,3.3-1.1,5.4c-0.7,2.6-2.1,5.9-3.9,10c-1.9,4.1-5.4,8.6-10.6,13.6c-3.7,3.6-7.4,6.5-11.1,8.8
				c-3.7,2.3-7.2,4.2-10.4,5.5c-3.3,1.4-6.2,2.4-8.9,3.1C486.7,288.6,484.5,289.1,482.7,289.4z M486.3,272.2c1.9-0.6,4.6-1.6,8.1-3
				c3.5-1.4,7.2-3.9,11-7.4c1-1,2-2,2.8-3c0.8-0.9,1.4-1.6,1.7-1.9c0.1-0.2,0.5-0.7,1.1-1.5c0.6-0.8,1.2-1.8,1.8-2.9
				c0.6-1.1,1.1-2.4,1.7-3.8c0.5-1.4,0.8-2.8,0.8-4.2c0-2.2-0.7-3.8-1.9-5c-1.3-1.2-3.1-1.5-5.5-1.1c-2.3,0.4-4.4,1.5-6.4,3.3
				c-2,1.8-4.2,4.6-6.6,8.5c-1.2,1.9-2.3,4.2-3.3,6.6c-1,2.5-1.9,4.8-2.7,7c-0.8,2.2-1.4,4-1.8,5.6
				C486.5,271,486.3,271.9,486.3,272.2z"/>
			<path d="M566.4,298.4c2.1-2,3.8-3.4,5.2-4.1c1.3-0.7,2.8-1.2,4.3-1.5c2.5-0.5,4.6-0.1,6.3,1.3c1.6,1.4,2.5,3.3,2.5,5.8
				c0,1.6-0.5,3.4-1.6,5.4c-1.1,2-2.5,3.9-4.4,5.8c-1.9,1.9-4.3,3.6-7.2,5.1c-2.9,1.6-6.4,2.7-10.2,3.5c-0.6,0.1-1.5,0.3-2.6,0.5
				c-1.1,0.2-2.5,0-4.1-0.3c-1.9-0.4-3.9-1.6-5.9-3.6c-2-2-3-5.5-2.9-10.4c0-2.2,0.4-5.3,1.2-9.3c0.8-4,1.7-8.8,3-14.4
				c1.1-5,2.4-10,3.6-15c1.2-5,2.4-10,3.6-14.9c1.1-4.3,2.1-7.8,2.6-10.4c0.5-2.5,0.9-4.8,1-6.8c-0.7,0.4-1.6,0.9-2.7,1.4
				c-1,0.5-2.5,1-4.3,1.3c-2.5,0.5-4.7,0.1-6.5-1.1c-1.8-1.2-2.7-3.1-2.7-5.7c0-1.9,0.5-3.5,1.4-4.9c0.9-1.4,1.6-2.3,2-2.8
				c2.3-2.6,5.6-4.9,9.9-7c4.3-2.1,8.1-3.5,11.2-4c4.2-0.7,7.6-0.2,10.2,1.7c2.7,1.8,4,4.8,4,9c0,2.9-0.6,6.6-1.8,11.1
				c-1.2,4.6-2.7,10.3-4.5,17c-1.8,6.5-3.3,11.9-4.4,16.2c-1.1,4.3-2.1,8.2-2.8,11.6c-0.8,3.4-1.4,6.6-1.8,9.5
				C567.3,291.3,566.9,294.6,566.4,298.4z M577.1,173.1c3.1-0.6,5.9-0.1,8.1,1.2c2.2,1.3,3.1,3.8,3,7.2c0,0.7,0,1.5-0.1,2.2
				c-0.1,0.7-0.3,1.7-0.5,3c-0.7,2.2-1.6,4-2.7,5.3c-1.1,1.4-2.2,2.4-3.4,3.2c-1.2,0.8-2.3,1.4-3.4,1.8c-1.1,0.4-2.1,0.7-3,0.8
				c-0.7,0.1-1.5,0.2-2.2,0.2c-0.7,0-1.5-0.1-2.2-0.3c-4.3-0.9-6.4-3.7-6.4-8.4c0-3.9,1.2-7.3,3.5-10.3
				C570,176,573.2,173.9,577.1,173.1z"/>
		</g>
	</g>
	<g>
		<g>
			<path class="st1" d="M207.5,402.9c2.8-0.4,4.2-0.5,7-0.9c0,1.9,0,2.8,0,4.7c1.1-1.6,2.5-3,4.1-4.3c1.6-1.2,3.6-2,6.1-2.3
				c1.8-0.2,3.5-0.1,5.2,0.3c1.7,0.4,3.2,1.2,4.5,2.3c1.3,1.1,2.4,2.5,3.2,4.2c0.8,1.7,1.2,3.8,1.3,6.1c0,0,0,0.1,0,0.1
				c0,2.4-0.3,4.5-1.1,6.4c-0.8,1.9-1.8,3.6-3.1,5c-1.3,1.4-2.8,2.5-4.5,3.4c-1.7,0.8-3.4,1.4-5.2,1.6c-2.5,0.3-4.5,0-6.2-0.8
				c-1.6-0.8-3-1.8-4.1-3c0,5.1,0,7.7,0,12.8c-2.8,0.3-4.2,0.4-7,0.7C207.5,427,207.5,414.9,207.5,402.9z M223.1,424
				c1.2-0.1,2.3-0.5,3.3-1c1-0.5,2-1.2,2.7-2.1c0.8-0.9,1.4-1.9,1.8-3c0.4-1.2,0.7-2.5,0.7-3.9c0,0,0-0.1,0-0.1
				c0-1.4-0.3-2.6-0.7-3.6c-0.5-1.1-1.1-1.9-1.9-2.6c-0.8-0.7-1.7-1.2-2.7-1.5c-1-0.3-2.2-0.4-3.3-0.2c-1.2,0.1-2.3,0.5-3.4,1.1
				c-1.1,0.6-2,1.3-2.8,2.2c-0.8,0.9-1.4,1.9-1.9,3.1c-0.5,1.2-0.7,2.4-0.7,3.7c0,0,0,0.1,0,0.1c0,1.3,0.2,2.5,0.7,3.6
				c0.5,1.1,1.1,1.9,1.9,2.6s1.7,1.2,2.8,1.5C220.8,424,221.9,424.1,223.1,424z"/>
			<path class="st1" d="M245.5,398c2.8-0.4,4.1-0.5,6.9-0.9c0,2.5,0.1,3.8,0.1,6.4c0.9-2.3,2.2-4.2,3.9-5.7c1.7-1.5,3.9-2.4,6.5-2.6
				c0,2.7,0.1,4.1,0.1,6.9c-0.2,0-0.2,0-0.4,0.1c-1.5,0.2-2.9,0.6-4.1,1.2c-1.2,0.6-2.3,1.5-3.2,2.5c-0.9,1-1.6,2.3-2,3.8
				c-0.5,1.5-0.7,3.1-0.7,5c0.1,4.3,0.1,6.5,0.2,10.8c-2.8,0.3-4.2,0.5-7,0.9C245.8,416.9,245.6,407.4,245.5,398z"/>
			<path class="st1" d="M283.1,422.2c-2.2,0.3-4.2,0.2-6-0.3c-1.9-0.5-3.5-1.3-4.9-2.4c-1.4-1.1-2.5-2.5-3.4-4.2
				c-0.8-1.7-1.3-3.7-1.3-5.8c0,0,0-0.1,0-0.1c0-2,0.3-4,0.9-5.9c0.7-1.9,1.6-3.6,2.9-5.1c1.3-1.5,2.8-2.8,4.5-3.8
				c1.7-1,3.7-1.7,5.8-2c2.4-0.3,4.4-0.2,6.2,0.4c1.8,0.6,3.3,1.5,4.5,2.7c1.2,1.2,2.2,2.7,2.8,4.5c0.7,1.8,1,3.7,1.1,5.8
				c0,0.3,0,0.6,0,0.9c0,0.3,0,0.6-0.1,1c-8.7,1.2-13.1,1.8-21.9,3c0.4,2.3,1.4,3.9,3,5c1.6,1,3.5,1.4,5.7,1.1
				c1.7-0.2,3.2-0.7,4.4-1.4c1.2-0.7,2.4-1.7,3.6-3c1.6,1.1,2.5,1.7,4.1,2.9c-1.4,1.8-3.1,3.3-5,4.6
				C288.2,421,285.9,421.8,283.1,422.2z M289.5,404.4c-0.1-1-0.4-2-0.8-2.8c-0.4-0.9-0.9-1.6-1.6-2.2c-0.7-0.6-1.4-1-2.3-1.3
				c-0.9-0.3-1.9-0.3-3-0.2c-2.1,0.3-3.8,1.2-5.2,2.8c-1.3,1.6-2.1,3.5-2.4,5.8C280.3,405.7,283.4,405.3,289.5,404.4z M284.3,380.5
				c2.5,0.7,3.7,1,6.2,1.7c-2.7,2.8-4.1,4.3-6.8,7.1c-2.1,0.3-3.2,0.4-5.3,0.7C280.8,386.2,281.9,384.3,284.3,380.5z"/>
			<path class="st1" d="M313.8,417.9c-2.2,0.3-4.3,0.3-6.6-0.2c-2.2-0.4-4.3-1.2-6.2-2.4c1.2-1.9,1.8-2.9,2.9-4.9
				c1.6,0.9,3.3,1.6,5,1.9c1.7,0.4,3.3,0.4,4.9,0.2c1.5-0.2,2.6-0.7,3.4-1.3c0.8-0.7,1.2-1.5,1.2-2.4c0,0,0-0.1,0-0.1
				c0-0.5-0.2-1-0.6-1.3c-0.4-0.3-0.9-0.6-1.5-0.8c-0.6-0.2-1.4-0.4-2.2-0.5c-0.8-0.1-1.7-0.3-2.5-0.4c-1.1-0.1-2.2-0.3-3.4-0.6
				c-1.1-0.2-2.2-0.6-3.1-1.1c-0.9-0.5-1.6-1.2-2.2-2.1c-0.6-0.9-0.9-2-1-3.4c0,0,0-0.1,0-0.1c0-1.3,0.2-2.6,0.7-3.8
				c0.5-1.2,1.2-2.2,2.2-3.1c0.9-0.9,2.1-1.7,3.4-2.3c1.3-0.6,2.7-1,4.2-1.2c1.9-0.3,3.8-0.3,5.8,0c2,0.3,3.7,0.8,5.4,1.6
				c-1,2-1.6,3.1-2.6,5.1c-1.5-0.6-2.9-1.1-4.4-1.3c-1.5-0.3-2.9-0.3-4.1-0.1c-1.3,0.2-2.4,0.6-3.1,1.3c-0.7,0.7-1.1,1.4-1,2.2
				c0,0,0,0.1,0,0.1c0,0.5,0.2,0.9,0.6,1.3c0.4,0.3,0.9,0.6,1.5,0.8c0.6,0.2,1.4,0.4,2.2,0.6c0.8,0.2,1.7,0.3,2.6,0.4
				c1.1,0.2,2.2,0.4,3.3,0.7c1.1,0.3,2.1,0.7,3,1.2c0.9,0.5,1.7,1.2,2.3,2c0.6,0.8,0.9,1.9,0.9,3.2c0,0,0,0.1,0,0.1
				c0,1.5-0.2,2.9-0.7,4.1c-0.5,1.2-1.3,2.3-2.3,3.1c-1,0.9-2.2,1.6-3.5,2.2C316.8,417.3,315.3,417.7,313.8,417.9z"/>
			<path class="st1" d="M341.9,413.5c-1.2,0.2-2.4,0.2-3.5,0.1c-1.1-0.1-2-0.4-2.8-1c-0.8-0.5-1.4-1.3-1.8-2.3
				c-0.4-1-0.7-2.3-0.7-3.9c-0.1-6.1-0.2-9.1-0.4-15.2c-1.5,0.2-2.3,0.3-3.8,0.6c-0.1-2.3-0.1-3.4-0.1-5.7c1.5-0.2,2.3-0.3,3.8-0.6
				c-0.1-3.2-0.1-4.7-0.1-7.8c2.8-0.4,4.2-0.6,7-1c0,3.1,0.1,4.7,0.1,7.8c3.2-0.5,4.9-0.7,8.1-1.2c0,2.2,0.1,3.4,0.1,5.6
				c-3.2,0.5-4.9,0.7-8.1,1.2c0.1,5.6,0.2,8.5,0.3,14.1c0,1.3,0.4,2.1,1,2.6c0.7,0.5,1.6,0.6,2.7,0.4c1.5-0.2,2.9-0.8,4.2-1.7
				c0,2.1,0.1,3.2,0.1,5.3c-0.9,0.6-1.8,1.1-2.8,1.5C344.3,413,343.2,413.3,341.9,413.5z"/>
			<path class="st1" d="M373.2,407.7c0-1.4,0-2.1,0-3.5c-1,1.3-2.3,2.5-3.9,3.5c-1.6,1-3.5,1.8-5.7,2.2c-1.4,0.2-2.8,0.3-4.1,0.1
				c-1.3-0.2-2.4-0.5-3.4-1.1c-1-0.6-1.7-1.4-2.3-2.4c-0.6-1-0.9-2.2-0.9-3.7c0,0,0-0.1,0-0.1c0-1.6,0.3-3,0.8-4.3
				c0.6-1.3,1.4-2.4,2.5-3.3c1.1-0.9,2.3-1.7,3.8-2.3c1.5-0.6,3.1-1.1,4.8-1.3c1.8-0.3,3.4-0.4,4.6-0.4c1.3,0,2.5,0.1,3.7,0.3
				c0-0.2,0-0.3,0-0.5c0-2-0.7-3.3-1.9-4.2c-1.3-0.8-3.1-1.1-5.5-0.7c-1.7,0.3-3.2,0.7-4.5,1.2c-1.3,0.5-2.7,1.2-4,1.9
				c-0.8-2-1.2-3-2-4.9c1.7-1,3.4-1.8,5.1-2.5c1.7-0.7,3.9-1.2,6.3-1.6c4.5-0.7,7.8-0.1,10,1.6c2.2,1.7,3.3,4.5,3.3,8.2
				c0,6.6,0.1,10,0.1,16.6C377.2,407.1,375.9,407.3,373.2,407.7z M373.3,396c-0.9-0.2-1.9-0.3-3.1-0.3c-1.2,0-2.4,0.1-3.8,0.3
				c-2.1,0.3-3.8,1-5,2c-1.2,1-1.8,2.2-1.8,3.5c0,0,0,0.1,0,0.1c0,1.4,0.6,2.3,1.7,2.8c1.1,0.5,2.5,0.7,4.1,0.4
				c1.1-0.2,2.2-0.5,3.1-1c1-0.4,1.8-1,2.5-1.6c0.7-0.6,1.3-1.3,1.6-2.1c0.4-0.8,0.6-1.6,0.6-2.5C373.3,396.9,373.3,396.6,373.3,396
				z"/>
			<path class="st1" d="M387.9,377.3c2.8-0.4,4.1-0.6,6.9-1.1c0,1.7,0,2.6,0,4.3c0.5-0.7,1-1.4,1.6-2.1c0.6-0.7,1.2-1.3,1.9-1.8
				c0.7-0.6,1.5-1.1,2.5-1.5c0.9-0.4,1.9-0.7,3-0.9c2.1-0.3,3.9-0.2,5.4,0.5c1.5,0.7,2.6,1.7,3.4,3c1.2-1.7,2.6-3.1,4.2-4.3
				c1.6-1.2,3.6-1.9,5.8-2.3c3.3-0.5,5.8,0,7.7,1.6c1.9,1.5,2.8,4,2.8,7.4c0.1,7.1,0.1,10.6,0.2,17.7c-2.8,0.4-4.1,0.7-6.9,1.1
				c0-6.3-0.1-9.4-0.1-15.7c0-2.2-0.6-3.8-1.6-4.8c-1.1-1-2.5-1.3-4.5-1c-1.9,0.3-3.4,1.1-4.6,2.5c-1.2,1.4-1.8,3.2-1.7,5.4
				c0,6.2,0,9.4,0.1,15.6c-2.8,0.4-4.2,0.7-6.9,1.1c0-6.3,0-9.5,0-15.8c0-2.2-0.5-3.7-1.6-4.7c-1-1-2.5-1.3-4.4-1s-3.4,1.2-4.6,2.6
				s-1.7,3.2-1.7,5.4c0,6.2,0,9.4,0,15.6c-2.7,0.5-4.1,0.7-6.8,1.2C388,394.1,387.9,388.5,387.9,377.3z"/>
			<path class="st1" d="M455.9,394.9c-2.3,0.4-4.4,0.3-6.3-0.1c-1.9-0.4-3.6-1.2-5.1-2.3c-1.4-1.1-2.5-2.4-3.3-4
				c-0.8-1.6-1.2-3.4-1.2-5.4c0,0,0-0.1,0-0.1c0-2,0.4-3.9,1.2-5.8c0.8-1.9,1.9-3.6,3.3-5.1c1.4-1.5,3.1-2.8,5-3.9
				c1.9-1.1,4.1-1.8,6.4-2.2c2.3-0.4,4.4-0.3,6.4,0.1c2,0.4,3.6,1.2,5.1,2.3s2.5,2.4,3.4,4c0.8,1.6,1.2,3.4,1.2,5.4c0,0,0,0.1,0,0.1
				c0,2-0.4,3.9-1.2,5.8c-0.8,1.9-1.9,3.6-3.3,5.1c-1.4,1.5-3.1,2.9-5,4C460.3,393.8,458.2,394.5,455.9,394.9z M455.9,389.4
				c1.4-0.2,2.6-0.7,3.7-1.3c1.1-0.7,2-1.4,2.8-2.4c0.8-0.9,1.4-2,1.8-3.1c0.4-1.1,0.6-2.3,0.6-3.5c0,0,0-0.1,0-0.1
				c0-1.2-0.2-2.3-0.7-3.3c-0.5-1-1.1-1.8-1.9-2.5c-0.8-0.7-1.8-1.2-2.9-1.4c-1.1-0.3-2.3-0.3-3.7-0.1c-1.4,0.2-2.6,0.7-3.7,1.3
				c-1.1,0.6-2,1.4-2.8,2.3c-0.8,0.9-1.4,1.9-1.8,3.1c-0.4,1.1-0.6,2.3-0.6,3.5c0,0,0,0.1,0,0.1c0,1.2,0.2,2.3,0.7,3.3
				c0.5,1,1.1,1.8,1.9,2.5c0.8,0.7,1.8,1.2,2.9,1.5C453.4,389.6,454.6,389.6,455.9,389.4z"/>
			<path class="st1" d="M489.1,389.1c-2.2,0.4-4.3,0.4-6.5,0.1c-2.2-0.3-4.3-1-6.2-2c1.2-1.9,1.8-2.9,3-4.8c1.6,0.8,3.3,1.4,5,1.7
				c1.7,0.3,3.3,0.3,4.9,0c1.5-0.3,2.6-0.8,3.4-1.5c0.8-0.7,1.2-1.5,1.2-2.4c0,0,0-0.1,0-0.1c0-0.5-0.2-0.9-0.5-1.3
				s-0.9-0.6-1.5-0.7c-0.6-0.2-1.3-0.3-2.2-0.4c-0.8-0.1-1.7-0.2-2.5-0.3c-1.1-0.1-2.2-0.2-3.3-0.4c-1.1-0.2-2.1-0.5-3-0.9
				c-0.9-0.5-1.6-1.1-2.2-1.9c-0.6-0.8-0.9-1.9-0.9-3.2c0,0,0-0.1,0-0.1c0-1.3,0.3-2.5,0.8-3.6s1.3-2.2,2.3-3.1
				c1-0.9,2.1-1.7,3.4-2.3c1.3-0.6,2.7-1.1,4.2-1.4c1.9-0.4,3.8-0.4,5.8-0.3c1.9,0.2,3.7,0.6,5.3,1.3c-1.1,2-1.6,3.1-2.7,5.1
				c-1.4-0.5-2.9-0.9-4.4-1.1c-1.5-0.2-2.9-0.2-4.1,0.1c-1.3,0.2-2.4,0.7-3.1,1.4c-0.7,0.7-1.1,1.4-1.1,2.2c0,0,0,0.1,0,0.1
				c0,0.5,0.2,0.9,0.6,1.2c0.4,0.3,0.9,0.5,1.5,0.7c0.6,0.2,1.3,0.3,2.2,0.4c0.8,0.1,1.7,0.2,2.5,0.3c1.1,0.1,2.2,0.3,3.3,0.5
				c1.1,0.2,2.1,0.5,3,1c0.9,0.4,1.6,1,2.2,1.8c0.6,0.8,0.9,1.8,0.9,3c0,0,0,0.1,0,0.1c0,1.5-0.3,2.8-0.9,4
				c-0.6,1.2-1.4,2.3-2.4,3.2c-1,0.9-2.2,1.7-3.5,2.3C492.1,388.3,490.6,388.8,489.1,389.1z"/>
		</g>
	</g>
</g>
</svg>
